<?xml version="1.0" standalone="no"?>
<!DOCTYPE svg PUBLIC "-//W3C//DTD SVG 20010904//EN"
 "http://www.w3.org/TR/2001/REC-SVG-20010904/DTD/svg10.dtd">
<svg version="1.0" xmlns="http://www.w3.org/2000/svg"
 width="119.000000pt" height="119.000000pt" viewBox="0 0 119.000000 119.000000"
 preserveAspectRatio="xMidYMid meet">

<g transform="translate(0.000000,119.000000) scale(0.100000,-0.100000)"
fill="#000000" stroke="none">
<path d="M480 973 c-45 -8 -60 -31 -60 -92 0 -31 -11 -118 -25 -194 -26 -150
-23 -174 20 -197 32 -17 120 -8 145 15 18 16 20 16 46 -4 46 -36 174 -20 190
24 4 9 -8 47 -25 86 l-32 70 25 30 c77 91 40 228 -70 258 -38 11 -164 13 -214
4z m215 -57 c35 -15 65 -59 65 -96 0 -31 -26 -75 -56 -97 l-27 -20 35 -81 c39
-88 37 -92 -26 -92 -42 0 -59 20 -82 93 -13 41 -23 57 -35 57 -21 0 -27 -18
-31 -85 -2 -27 -7 -53 -13 -57 -19 -14 -84 -9 -93 7 -5 10 1 69 14 153 13 75
23 156 24 179 0 23 5 44 13 46 28 12 179 6 212 -7z"/>
<path d="M577 853 c-3 -10 -8 -39 -12 -65 -6 -46 -5 -48 19 -48 14 0 35 9 46
20 22 22 27 79 8 98 -18 18 -56 15 -61 -5z"/>
<path d="M230 290 c0 -61 3 -81 13 -78 6 3 13 19 15 36 4 42 23 41 46 -3 11
-19 25 -35 33 -35 17 0 16 4 -3 41 -14 28 -14 32 1 43 11 8 16 23 13 41 -3 29
-5 30 -60 33 l-58 3 0 -81z m90 41 c0 -13 -9 -20 -30 -23 -26 -4 -30 -1 -30
19 0 19 5 23 30 23 23 0 30 -5 30 -19z"/>
<path d="M740 290 c0 -44 4 -80 9 -80 5 0 11 36 13 80 2 59 0 80 -9 80 -9 0
-13 -23 -13 -80z"/>
<path d="M912 288 c3 -67 5 -73 26 -76 25 -4 30 15 7 24 -9 4 -15 19 -15 35 0
17 6 32 15 35 8 4 15 10 15 15 0 5 -7 9 -15 9 -8 0 -15 7 -15 15 0 8 -5 15
-10 15 -7 0 -10 -27 -8 -72z"/>
<path d="M377 312 c-51 -56 26 -138 79 -85 19 20 2 32 -20 14 -17 -14 -46 -4
-46 16 0 12 9 14 40 11 33 -3 40 0 40 14 0 43 -63 64 -93 30z m63 -17 c0 -9
-9 -15 -25 -15 -24 0 -32 10 -18 23 12 13 43 7 43 -8z"/>
<path d="M480 321 c0 -22 44 -111 55 -111 7 0 22 25 34 56 25 66 25 64 7 64
-8 0 -17 -13 -21 -30 -10 -44 -22 -45 -39 -5 -14 31 -36 48 -36 26z"/>
<path d="M617 312 c-34 -38 -9 -102 39 -102 33 0 64 29 64 59 0 54 -68 82
-103 43z m73 -43 c0 -24 -27 -36 -48 -22 -23 14 -25 29 -7 47 21 20 55 5 55
-25z"/>
<path d="M787 323 c-13 -12 -7 -68 9 -91 18 -26 56 -29 78 -6 21 21 22 104 2
104 -10 0 -16 -14 -18 -42 -2 -35 -7 -43 -23 -43 -16 0 -21 8 -23 43 -3 40
-10 50 -25 35z"/>
</g>
</svg>
